<?xml version="1.0" standalone="no"?>
<!DOCTYPE svg PUBLIC "-//W3C//DTD SVG 20010904//EN"
 "http://www.w3.org/TR/2001/REC-SVG-20010904/DTD/svg10.dtd">
<svg version="1.0" xmlns="http://www.w3.org/2000/svg"
 width="300.000000pt" height="300.000000pt" viewBox="0 0 300.000000 300.000000"
 preserveAspectRatio="xMidYMid meet">
<metadata>
Created by potrace 1.10, written by Peter Selinger 2001-2011
</metadata>
<g transform="translate(0.000000,300.000000) scale(0.100000,-0.100000)"
fill="#000000" stroke="none">
<path d="M1315 2540 c-251 -45 -488 -173 -668 -359 -96 -100 -149 -174 -211
-298 -153 -307 -156 -665 -6 -963 97 -193 256 -359 445 -465 308 -172 692
-181 1010 -23 439 218 709 686 665 1151 -37 383 -265 703 -623 872 -146 69
-226 87 -407 91 -85 1 -177 -1 -205 -6z m424 -60 c372 -89 682 -415 757 -793
2 -11 6 -47 9 -80 5 -61 5 -61 -23 38 -62 220 -166 399 -314 541 -150 144
-296 228 -500 288 -66 20 -76 25 -48 25 19 1 73 -8 119 -19z m-232 -21 c244
-27 469 -135 643 -309 141 -141 236 -306 287 -497 22 -85 26 -119 26 -258 1
-176 -16 -271 -71 -404 -135 -322 -464 -551 -833 -580 -492 -40 -942 258
-1092 724 -42 131 -51 192 -51 350 0 122 4 166 22 238 62 248 196 445 393 577
101 67 209 111 346 139 155 32 198 35 330 20z m-1122 -1164 c46 -252 150 -451
321 -615 131 -126 277 -214 456 -275 96 -32 55 -32 -58 1 -171 49 -320 138
-448 267 -173 174 -273 391 -292 633 -4 49 -4 87 -1 84 3 -3 13 -45 22 -95z"/>
<path d="M849 2113 c-13 -15 9 -28 43 -24 72 7 82 -56 77 -485 -5 -324 -6
-330 -81 -336 -30 -2 -43 -7 -43 -18 0 -12 21 -15 127 -16 69 -1 151 -5 181
-8 52 -7 56 -9 62 -39 12 -57 67 -147 116 -191 165 -148 433 -136 585 26 69
74 97 144 102 254 6 140 -25 230 -112 322 -98 104 -280 148 -416 100 -25 -8
-34 -7 -48 5 -10 9 -35 23 -56 32 l-39 16 31 32 c41 43 62 95 62 157 0 77 -31
124 -110 166 -31 17 -59 19 -253 19 -154 0 -222 -3 -228 -12z m181 -191 c0
-105 4 -162 11 -169 9 -9 9 -19 0 -41 -14 -33 -12 -386 3 -414 7 -15 3 -18
-24 -18 -29 0 -32 2 -25 23 12 35 18 646 7 707 -11 59 -9 70 14 70 12 0 14
-27 14 -158z m205 139 c106 -48 143 -187 74 -275 -20 -25 -24 -26 -130 -26
l-109 0 0 154 c0 173 -5 163 80 165 25 0 63 -8 85 -18z m134 -35 c16 -17 25
-40 27 -73 4 -43 3 -45 -7 -23 -7 14 -23 46 -36 73 -25 52 -19 61 16 23z m-64
-338 c70 -41 70 -39 6 -105 -68 -70 -101 -143 -108 -244 l-5 -66 -35 7 c-19 5
-48 14 -64 20 l-29 12 0 197 0 196 103 0 c78 0 109 -4 132 -17z m174 -87 c25
-59 28 -148 6 -191 -9 -17 -17 -30 -18 -30 -1 0 -1 31 1 69 3 53 -1 80 -17
115 -11 25 -25 46 -30 46 -9 0 -41 61 -41 76 0 3 17 -4 39 -15 29 -15 43 -32
60 -70z m246 34 c99 -48 167 -155 187 -293 15 -102 4 -178 -35 -255 -114 -220
-416 -187 -532 59 -14 29 -25 59 -25 66 0 7 23 21 51 31 106 38 172 135 172
254 0 42 -7 75 -22 105 -27 56 -27 56 7 61 59 11 143 -1 197 -28z m-307 -84
c29 -95 2 -203 -60 -241 -18 -11 -39 -20 -45 -20 -18 0 -17 94 2 156 14 49 70
144 84 144 4 0 13 -17 19 -39z m522 -75 c34 -69 47 -158 34 -232 -8 -48 -8
-47 -15 43 -8 100 -28 174 -67 243 -24 43 -25 44 -4 26 13 -11 36 -47 52 -80z
m-657 -204 c15 -16 16 -24 6 -46 -11 -24 -8 -36 34 -118 45 -88 45 -90 16 -62
-31 29 -69 96 -84 144 -4 14 -15 33 -23 43 -13 15 -14 22 -4 37 7 11 12 30 12
42 0 13 3 34 7 48 6 21 8 18 13 -22 3 -26 14 -55 23 -66z"/>
</g>
</svg>
